# This file uses meters as units for non-parametric coordinates.

mtllib rock.mtl
g default
v -21.681638 24.692181 14.265210
v -1.472196 31.443985 24.707658
v 30.679017 15.903034 6.817926
v -45.502607 -12.276647 -6.811087
v -40.801496 8.733925 -26.829230
v -33.450376 -22.196762 27.529061
v 23.974072 -3.956783 -33.229895
v 3.700419 28.014519 -54.231856
v 16.387347 19.231445 -38.039595
v 26.936863 25.024777 -16.986098
v 36.967350 -15.180986 -21.714675
v -14.905019 22.310433 -20.290069
v -7.522707 32.528916 -17.413131
v -5.878255 32.485809 -49.504386
v -32.527174 2.072434 23.457318
v -38.248624 16.852921 11.879483
v -1.623853 -21.364376 37.500491
v -22.629728 -35.230170 32.854287
v 9.436629 -19.101586 28.907930
v 26.319491 -33.134100 11.574006
v -32.328504 6.626724 -38.231795
v -12.362947 27.587731 -50.954535
v -18.814451 -25.889607 -21.071273
v -21.322423 -12.269338 -24.141440
v -10.541875 -10.909166 -43.811171
v -24.740583 -31.644933 36.211320
v 9.455996 -0.120079 55.356142
v -0.877935 35.612663 -3.356154
v -4.927381 1.240532 -51.243506
v 7.284766 14.107548 35.145616
v 43.971433 -0.024376 33.746572
v -16.532583 15.103073 27.062505
v 8.994635 -25.939710 -32.596312
vt 0.786188 0.713858
vt 0.924032 0.625412
vt 0.885612 0.808585
vt 0.739245 0.551357
vt 0.875641 0.862543
vt 0.677570 0.526158
vt 0.854089 0.570625
vt 0.974830 0.922748
vt 0.721770 0.781338
vt 0.694536 0.510272
vt 0.915751 0.553565
vt 0.998008 0.915886
vt 0.786223 0.795866
vt 0.792659 0.888945
vt 0.329611 0.313241
vt 0.414567 0.155716
vt 0.486289 0.418163
vt 0.604824 0.178092
vt 0.467681 0.101225
vt 0.561659 0.290735
vt 0.577409 0.078465
vt 0.635200 0.375390
vt 0.618972 0.001842
vt 0.553163 0.424784
vt 0.654927 0.242590
vt 0.485836 0.520422
vt 0.188102 0.146873
vt 0.190914 0.279674
vt 0.092469 0.196288
vt 0.322536 0.344172
vt 0.159470 0.346192
vt 0.116835 0.135730
vt 0.272615 0.443799
vt 0.167252 0.498051
vt 0.124536 0.359806
vt 0.014072 0.207577
vt 0.239815 0.001842
vt 0.212579 0.520422
vt 0.001992 0.390750
vt 0.672871 0.399800
vt 0.822520 0.090082
vt 0.904502 0.299100
vt 0.690925 0.144619
vt 0.954889 0.141575
vt 0.772272 0.421786
vt 0.730071 0.037012
vt 0.662882 0.415686
vt 0.756639 0.001842
vt 0.824703 0.506281
vt 0.824611 0.381125
vt 0.988033 0.404022
vt 0.215221 0.620051
vt 0.388825 0.626671
vt 0.325924 0.754100
vt 0.225495 0.524413
vt 0.542816 0.722663
vt 0.600309 0.749231
vt 0.517328 0.852327
vt 0.418138 0.757848
vt 0.416119 0.681835
vt 0.567410 0.585899
vt 0.394960 0.727162
vt 0.620524 0.524413
vt 0.671435 0.656782
vt 0.047264 0.524413
vt 0.086105 0.745629
vt 0.010417 0.683967
vt 0.209085 0.673592
vt 0.123022 0.749620
vt 0.189425 0.831646
vt 0.178717 0.872307
vt 0.001992 0.898306
vt 0.064333 0.749620
vt 0.116415 0.816297
vn -0.519364 0.570368 0.636350
vn -0.519364 0.570368 0.636350
vn -0.519364 0.570368 0.636350
vn -0.373371 0.918730 0.128564
vn -0.373371 0.918730 0.128564
vn -0.373371 0.918730 0.128564
vn -0.426732 0.890362 -0.158607
vn -0.426732 0.890362 -0.158607
vn -0.426732 0.890362 -0.158607
vn -0.406612 0.902506 -0.141946
vn -0.406612 0.902506 -0.141946
vn -0.406612 0.902507 -0.141946
vn -0.768818 0.609712 -0.192797
vn -0.768818 0.609712 -0.192797
vn -0.768818 0.609712 -0.192797
vn -0.452504 0.891574 0.018311
vn -0.452504 0.891574 0.018311
vn -0.452504 0.891574 0.018311
vn 0.589104 0.613914 0.525420
vn 0.589104 0.613914 0.525420
vn 0.589104 0.613914 0.525420
vn 0.511484 0.826195 0.236190
vn 0.511484 0.826195 0.236190
vn 0.511484 0.826195 0.236190
vn -0.456699 -0.301054 -0.837134
vn -0.456699 -0.301054 -0.837133
vn -0.456699 -0.301054 -0.837134
vn 0.526317 -0.690978 0.495520
vn 0.526317 -0.690978 0.495520
vn 0.526317 -0.690978 0.495520
vn 0.344688 -0.762757 0.547168
vn 0.344688 -0.762757 0.547168
vn 0.344688 -0.762757 0.547168
vn -0.972524 0.232290 0.015417
vn -0.972524 0.232290 0.015417
vn -0.972524 0.232290 0.015417
vn -0.941683 0.018933 0.335968
vn -0.941683 0.018933 0.335968
vn -0.941683 0.018933 0.335968
vn -0.488342 0.859905 0.148616
vn -0.488342 0.859905 0.148616
vn -0.488342 0.859905 0.148616
vn 0.751668 0.574610 0.323757
vn 0.751668 0.574610 0.323757
vn 0.751669 0.574610 0.323757
vn 0.063918 -0.542095 -0.837883
vn 0.063918 -0.542095 -0.837883
vn 0.063918 -0.542095 -0.837883
vn 0.450953 -0.336242 -0.826791
vn 0.450953 -0.336242 -0.826791
vn 0.450953 -0.336242 -0.826791
vn 0.459419 -0.318729 -0.829063
vn 0.459419 -0.318729 -0.829063
vn 0.459419 -0.318729 -0.829063
vn -0.789316 -0.597410 0.141709
vn -0.789316 -0.597410 0.141709
vn -0.789316 -0.597410 0.141709
vn -0.198545 -0.045295 -0.979045
vn -0.198545 -0.045295 -0.979045
vn -0.198545 -0.045295 -0.979045
vn 0.378392 0.919860 -0.103327
vn 0.378392 0.919860 -0.103327
vn 0.378392 0.919861 -0.103327
vn 0.619677 0.782475 -0.061095
vn 0.619678 0.782475 -0.061095
vn 0.619677 0.782475 -0.061095
vn 0.479771 -0.248523 -0.841461
vn 0.479771 -0.248523 -0.841461
vn 0.479771 -0.248523 -0.841461
vn 0.221061 -0.594064 0.773447
vn 0.221061 -0.594064 0.773447
vn 0.221061 -0.594064 0.773447
vn 0.273765 -0.698495 0.661178
vn 0.273765 -0.698495 0.661178
vn 0.273765 -0.698496 0.661178
vn -0.463414 0.529495 0.710551
vn -0.463414 0.529495 0.710551
vn -0.463414 0.529495 0.710551
vn -0.640229 0.254274 0.724880
vn -0.640229 0.254274 0.724880
vn -0.640229 0.254274 0.724880
vn -0.397390 0.242954 0.884904
vn -0.397390 0.242954 0.884904
vn -0.397390 0.242954 0.884904
vn 0.756311 0.259322 -0.600621
vn 0.756311 0.259322 -0.600621
vn 0.756311 0.259322 -0.600621
vn 0.816294 0.151453 -0.557428
vn 0.816294 0.151453 -0.557428
vn 0.816294 0.151453 -0.557428
vn 0.181768 0.921015 -0.344518
vn 0.181768 0.921015 -0.344518
vn 0.181768 0.921015 -0.344518
vn -0.384113 0.923049 -0.020923
vn -0.384113 0.923049 -0.020923
vn -0.384113 0.923049 -0.020923
vn 0.412310 0.899846 0.142396
vn 0.412310 0.899846 0.142396
vn 0.412310 0.899846 0.142396
vn -0.804226 0.592837 -0.042007
vn -0.804226 0.592837 -0.042007
vn -0.804226 0.592837 -0.042007
vn -0.023628 -0.988147 -0.151680
vn -0.023628 -0.988147 -0.151680
vn -0.023628 -0.988147 -0.151680
vn -0.074422 -0.981697 -0.175307
vn -0.074422 -0.981697 -0.175307
vn -0.074422 -0.981697 -0.175307
vn 0.444165 -0.840211 -0.311066
vn 0.444166 -0.840211 -0.311066
vn 0.444166 -0.840211 -0.311066
vn 0.324037 0.789620 0.521058
vn 0.324037 0.789620 0.521058
vn 0.324037 0.789620 0.521058
vn 0.348969 0.871927 0.343459
vn 0.348969 0.871927 0.343459
vn 0.348969 0.871927 0.343459
vn -0.785114 -0.611399 0.098928
vn -0.785114 -0.611399 0.098928
vn -0.785114 -0.611399 0.098928
vn -0.521997 -0.833457 -0.181297
vn -0.521997 -0.833457 -0.181297
vn -0.521997 -0.833457 -0.181297
vn -0.728113 0.328311 -0.601717
vn -0.728113 0.328311 -0.601717
vn -0.728113 0.328311 -0.601717
vn -0.591369 0.803424 -0.069226
vn -0.591369 0.803424 -0.069226
vn -0.591369 0.803424 -0.069226
vn -0.608955 0.153721 0.778167
vn -0.608955 0.153721 0.778167
vn -0.608955 0.153721 0.778167
vn -0.444542 -0.115714 -0.888253
vn -0.444542 -0.115714 -0.888253
vn -0.444542 -0.115714 -0.888253
vn -0.816304 0.125642 0.563792
vn -0.816304 0.125642 0.563792
vn -0.816304 0.125642 0.563792
vn -0.400212 0.648822 0.647195
vn -0.400212 0.648822 0.647195
vn -0.400212 0.648822 0.647195
vn -0.501899 0.404551 0.764484
vn -0.501899 0.404551 0.764484
vn -0.501899 0.404551 0.764484
vn 0.312625 -0.691739 0.650970
vn 0.312625 -0.691739 0.650970
vn 0.312625 -0.691739 0.650970
vn 0.626207 -0.182827 0.757918
vn 0.626207 -0.182827 0.757918
vn 0.626207 -0.182827 0.757918
vn 0.241644 -0.625583 0.741791
vn 0.241644 -0.625583 0.741791
vn 0.241644 -0.625583 0.741791
vn 0.876380 -0.481171 0.020820
vn 0.876380 -0.481171 0.020820
vn 0.876380 -0.481171 0.020820
vn -0.247639 -0.765239 -0.594208
vn -0.247639 -0.765239 -0.594208
vn -0.247639 -0.765239 -0.594208
vn -0.423184 -0.686983 -0.590737
vn -0.423184 -0.686983 -0.590737
vn -0.423184 -0.686983 -0.590737
vn -0.635397 -0.664008 -0.394164
vn -0.635397 -0.664008 -0.394164
vn -0.635397 -0.664008 -0.394164
vn -0.787036 -0.324050 -0.524944
vn -0.787036 -0.324050 -0.524944
vn -0.787036 -0.324050 -0.524944
vn -0.838521 -0.262081 -0.477698
vn -0.838521 -0.262081 -0.477698
vn -0.838521 -0.262081 -0.477698
vn -0.559366 -0.278950 -0.780574
vn -0.559366 -0.278950 -0.780574
vn -0.559366 -0.278950 -0.780574
vn 0.858345 0.181275 -0.479983
vn 0.858345 0.181275 -0.479983
vn 0.858345 0.181275 -0.479983
vn 0.524746 0.819198 0.231424
vn 0.524746 0.819197 0.231424
vn 0.524746 0.819197 0.231424
vn -0.186104 0.497272 -0.847399
vn -0.186104 0.497272 -0.847399
vn -0.186104 0.497272 -0.847399
vn 0.947045 0.258647 -0.190284
vn 0.947045 0.258647 -0.190284
vn 0.947045 0.258647 -0.190284
s off
g LowPoly_Rock
usemtl initialShadingGroup
f 1/29/1 32/32/2 2/27/3
f 2/27/4 28/28/5 1/29/6
f 16/36/7 12/35/8 5/39/9
f 1/29/10 12/35/11 16/36/12
f 1/29/13 13/31/14 12/35/15
f 1/29/16 28/28/17 13/31/18
f 30/24/19 3/20/20 2/22/21
f 10/18/22 3/20/23 31/17/24
f 29/56/25 25/57/26 21/58/27
f 19/50/28 27/49/29 17/45/30
f 19/50/31 31/51/32 27/49/33
f 4/1/34 16/2/35 5/3/36
f 4/1/37 6/4/38 16/2/39
f 12/35/40 14/34/41 5/39/42
f 2/22/43 27/26/44 30/24/45
f 33/41/46 25/46/47 29/48/48
f 33/64/49 29/56/50 11/63/51
f 11/63/52 29/56/53 7/61/54
f 18/6/55 26/10/56 6/4/57
f 8/60/58 29/56/59 22/59/60
f 14/34/61 28/28/62 8/38/63
f 28/25/64 9/21/65 8/23/66
f 8/60/67 7/61/68 29/56/69
f 26/47/70 18/40/71 17/45/72
f 26/47/73 17/45/74 27/49/75
f 32/32/76 27/37/77 2/27/78
f 26/65/79 27/68/80 32/66/81
f 26/65/82 32/66/83 15/67/84
f 10/18/85 11/16/86 7/19/87
f 8/23/88 9/21/89 7/19/90
f 9/33/91 28/28/92 10/30/93
f 14/34/94 13/31/95 28/28/96
f 10/30/97 28/28/98 2/27/99
f 14/34/100 12/35/101 13/31/102
f 18/40/103 33/41/104 20/42/105
f 18/40/106 23/43/107 33/41/108
f 20/42/109 33/41/110 11/44/111
f 30/52/112 27/55/113 31/53/114
f 30/52/115 31/53/116 3/54/117
f 6/4/118 4/1/119 18/6/120
f 18/6/121 4/1/122 23/9/123
f 5/3/124 22/8/125 21/5/126
f 5/3/127 14/12/128 22/8/129
f 15/7/130 6/4/131 26/10/132
f 29/56/133 21/58/134 22/59/135
f 6/4/136 15/7/137 16/2/138
f 16/36/139 32/32/140 1/29/141
f 15/7/142 32/11/143 16/2/144
f 17/45/145 18/40/146 20/42/147
f 20/69/148 19/70/149 17/71/150
f 19/50/151 20/42/152 31/51/153
f 20/15/154 11/16/155 31/17/156
f 33/41/157 23/43/158 25/46/159
f 4/72/160 21/73/161 24/74/162
f 21/5/163 25/14/164 24/13/165
f 5/3/166 21/5/167 4/1/168
f 25/14/169 23/9/170 24/13/171
f 24/13/172 23/9/173 4/1/174
f 7/19/175 9/21/176 10/18/177
f 2/22/178 3/20/179 10/18/180
f 14/62/181 8/60/182 22/59/183
f 11/16/184 10/18/185 31/17/186
