{
    "asset": {
        "copyright": "(C)2024 CS_Dev01",
        "generator": "maya2glTF main fbbc95e5dc4d",
        "version": "2.0"
    },
    "scenes": [
        {
            "nodes": [
                0
            ]
        }
    ],
    "scene": 0,
    "nodes": [
        {
            "name": "SandTile",
            "mesh": 0
        }
    ],
    "meshes": [
        {
            "name": "SandTileShape",
            "extras": {
                "targetNames": []
            },
            "primitives": [
                {
                    "attributes": {
                        "NORMAL": 1,
                        "POSITION": 2,
                        "TANGENT": 3,
                        "TEXCOORD_0": 4
                    },
                    "indices": 0,
                    "mode": 4,
                    "material": 0
                }
            ]
        }
    ],
    "materials": [
        {
            "name": "lambert6",
            "pbrMetallicRoughness": {
                "baseColorFactor": [
                    0.4000000059604645,
                    0.4000000059604645,
                    0.4000000059604645,
                    1.0
                ],
                "metallicFactor": 0.0,
                "roughnessFactor": 1.0
            }
        }
    ],
    "accessors": [
        {
            "name": "SandTileShape#0/indices",
            "bufferView": 0,
            "byteOffset": 0,
            "componentType": 5123,
            "count": 6,
            "max": [
                3
            ],
            "min": [
                0
            ],
            "type": "SCALAR"
        },
        {
            "name": "SandTileShape#0/vertices/NORMAL",
            "bufferView": 1,
            "byteOffset": 0,
            "componentType": 5126,
            "count": 4,
            "max": [
                0.0,
                1.0,
                0.0
            ],
            "min": [
                0.0,
                1.0,
                0.0
            ],
            "type": "VEC3"
        },
        {
            "name": "SandTileShape#0/vertices/POSITION",
            "bufferView": 1,
            "byteOffset": 48,
            "componentType": 5126,
            "count": 4,
            "max": [
                0.0,
                0.0,
                500.0
            ],
            "min": [
                -500.0,
                0.0,
                0.0
            ],
            "type": "VEC3"
        },
        {
            "name": "SandTileShape#0/vertices/TANGENT",
            "bufferView": 2,
            "byteOffset": 0,
            "componentType": 5126,
            "count": 4,
            "max": [
                1.0,
                0.0,
                0.0,
                1.0
            ],
            "min": [
                1.0,
                0.0,
                0.0,
                1.0
            ],
            "type": "VEC4"
        },
        {
            "name": "SandTileShape#0/vertices/TEXCOORD_0",
            "bufferView": 3,
            "byteOffset": 0,
            "componentType": 5126,
            "count": 4,
            "max": [
                1.0,
                1.0
            ],
            "min": [
                0.0,
                0.0
            ],
            "type": "VEC2"
        }
    ],
    "bufferViews": [
        {
            "name": "sandTile/data/indices-2",
            "buffer": 0,
            "byteOffset": 192,
            "byteLength": 12,
            "target": 34963
        },
        {
            "name": "sandTile/data/vertices-12",
            "buffer": 0,
            "byteOffset": 64,
            "byteLength": 96,
            "byteStride": 12,
            "target": 34962
        },
        {
            "name": "sandTile/data/vertices-16",
            "buffer": 0,
            "byteOffset": 0,
            "byteLength": 64,
            "byteStride": 16,
            "target": 34962
        },
        {
            "name": "sandTile/data/vertices-8",
            "buffer": 0,
            "byteOffset": 160,
            "byteLength": 32,
            "byteStride": 8,
            "target": 34962
        }
    ],
    "buffers": [
        {
            "name": "sandTile/data",
            "byteLength": 204,
            "uri": "sandTile0.bin"
        }
    ]
}
